<svg width="350" height="350" viewBox="0 0 350 350" version="1.1" xmlns="http://www.w3.org/2000/svg" xmlns:xlink="http://www.w3.org/1999/xlink">
<title>bRionZ</title>
<desc>Created using Figma</desc>
<g id="Canvas" transform="translate(-456 60)">
<clipPath id="clip-0" clip-rule="evenodd">
<path d="M 456 -60L 806 -60L 806 290L 456 290L 456 -60Z" fill="#FFFFFF"/>
</clipPath>
<g id="bRionZ" clip-path="url(#clip-0)">
<g id="Ellipse">
<use xlink:href="#path0_fill" transform="translate(456 -60)" fill="#363738"/>
</g>
<g id="bR">
<use xlink:href="#path1_fill" transform="translate(375 -141)" fill="#FF2B2B"/>
<use xlink:href="#path2_fill" transform="translate(375 -141)" fill="#FFFFFF"/>
</g>
</g>
</g>
<defs>
<path id="path0_fill" d="M 350 175C 350 271.65 271.65 350 175 350C 78.3502 350 0 271.65 0 175C 0 78.3502 78.3502 0 175 0C 271.65 0 350 78.3502 350 175Z"/>
<path id="path1_fill" d="M 291.547 216.988L 291.547 273.043L 319.574 273.043C 323.415 273.043 327.029 272.327 330.414 270.895C 333.799 269.397 336.762 267.379 339.301 264.84C 341.84 262.301 343.826 259.339 345.258 255.953C 346.755 252.503 347.504 248.857 347.504 245.016C 347.504 241.174 346.755 237.561 345.258 234.176C 343.826 230.725 341.84 227.73 339.301 225.191C 336.762 222.652 333.799 220.667 330.414 219.234C 327.029 217.737 323.415 216.988 319.574 216.988L 291.547 216.988ZM 291.547 329L 263.52 329L 263.52 188.961L 319.574 188.961C 324.717 188.961 329.665 189.645 334.418 191.012C 339.171 192.314 343.598 194.202 347.699 196.676C 351.866 199.085 355.642 202.014 359.027 205.465C 362.478 208.85 365.408 212.626 367.816 216.793C 370.29 220.96 372.178 225.419 373.48 230.172C 374.848 234.924 375.531 239.872 375.531 245.016C 375.531 249.833 374.913 254.521 373.676 259.078C 372.504 263.635 370.779 267.965 368.5 272.066C 366.286 276.168 363.552 279.944 360.297 283.395C 357.042 286.845 353.396 289.84 349.359 292.379L 364.887 329L 335.102 329L 322.895 300.777L 291.547 300.973L 291.547 329Z"/>
<path id="path2_fill" d="M 245.844 275.777C 245.844 283.98 244.444 291.467 241.645 298.238C 238.845 305.009 235.036 310.836 230.219 315.719C 225.401 320.536 219.737 324.28 213.227 326.949C 206.781 329.618 199.848 330.953 192.426 330.953C 185.069 330.953 178.135 329.586 171.625 326.852C 165.18 324.117 159.516 320.309 154.633 315.426C 149.815 310.543 146.007 304.749 143.207 298.043C 140.408 291.272 139.008 283.85 139.008 275.777L 139.008 182.809L 165.766 182.809L 165.766 231.637C 167.198 229.814 168.923 228.186 170.941 226.754C 173.025 225.322 175.238 224.15 177.582 223.238C 179.991 222.327 182.465 221.643 185.004 221.188C 187.543 220.667 190.017 220.406 192.426 220.406C 199.848 220.406 206.781 221.806 213.227 224.605C 219.737 227.34 225.401 231.181 230.219 236.129C 235.036 241.077 238.845 246.936 241.645 253.707C 244.444 260.413 245.844 267.77 245.844 275.777ZM 218.988 275.777C 218.988 271.741 218.272 267.997 216.84 264.547C 215.473 261.031 213.585 258.004 211.176 255.465C 208.767 252.926 205.935 250.94 202.68 249.508C 199.49 248.076 196.072 247.359 192.426 247.359C 188.78 247.359 185.329 248.173 182.074 249.801C 178.884 251.363 176.085 253.479 173.676 256.148C 171.267 258.753 169.379 261.78 168.012 265.23C 166.645 268.616 165.961 272.132 165.961 275.777C 165.961 279.814 166.645 283.557 168.012 287.008C 169.379 290.458 171.267 293.453 173.676 295.992C 176.085 298.531 178.884 300.549 182.074 302.047C 185.329 303.479 188.78 304.195 192.426 304.195C 196.072 304.195 199.49 303.479 202.68 302.047C 205.935 300.549 208.767 298.531 211.176 295.992C 213.585 293.453 215.473 290.458 216.84 287.008C 218.272 283.557 218.988 279.814 218.988 275.777Z"/>
</defs>
</svg>
