<svg width="512" height="512" viewBox="0 0 512 512" version="1.1" xmlns="http://www.w3.org/2000/svg" xmlns:xlink="http://www.w3.org/1999/xlink">
<title>bRionZ.svg</title>
<desc>Created using Figma</desc>
<g id="Canvas" transform="translate(-456 60)">
<clipPath id="clip-0" clip-rule="evenodd">
<path d="M 456 -60L 968 -60L 968 452L 456 452L 456 -60Z" fill="#FFFFFF"/>
</clipPath>
<g id="bRionZ" clip-path="url(#clip-0)">
<g id="Ellipse">
<use xlink:href="#path0_fill" transform="translate(456 -60)" fill="#363738"/>
</g>
<g id="bR">
<use xlink:href="#path1_fill" transform="translate(456 -60)" fill="#FF2B2B"/>
<use xlink:href="#path2_fill" transform="translate(456 -60)" fill="#FFFFFF"/>
</g>
</g>
</g>
<defs>
<path id="path0_fill" d="M 512 256C 512 397.385 397.385 512 256 512C 114.615 512 0 397.385 0 256C 0 114.615 114.615 0 256 0C 397.385 0 512 114.615 512 256Z"/>
<path id="path1_fill" d="M 315.186 190.5L 315.186 283.832L 361.851 283.832C 368.247 283.832 374.263 282.639 379.899 280.254C 385.536 277.761 390.468 274.401 394.696 270.173C 398.923 265.946 402.229 261.014 404.614 255.377C 407.107 249.632 408.354 243.562 408.354 237.166C 408.354 230.771 407.107 224.754 404.614 219.118C 402.229 213.373 398.923 208.386 394.696 204.159C 390.468 199.931 385.536 196.625 379.899 194.24C 374.263 191.747 368.247 190.5 361.851 190.5L 315.186 190.5ZM 315.186 377L 268.52 377L 268.52 143.835L 361.851 143.835C 370.415 143.835 378.653 144.973 386.566 147.25C 394.479 149.417 401.85 152.561 408.679 156.68C 415.617 160.691 421.904 165.569 427.541 171.314C 433.286 176.951 438.164 183.238 442.174 190.175C 446.293 197.113 449.437 204.538 451.605 212.451C 453.881 220.364 455.02 228.603 455.02 237.166C 455.02 245.187 453.99 252.992 451.93 260.58C 449.979 268.168 447.106 275.376 443.312 282.206C 439.627 289.035 435.074 295.322 429.654 301.067C 424.234 306.812 418.164 311.798 411.443 316.026L 437.296 377L 387.704 377L 367.379 330.009L 315.186 330.334L 315.186 377Z"/>
<path id="path2_fill" d="M 239.09 288.384C 239.09 302.042 236.759 314.508 232.098 325.782C 227.437 337.055 221.096 346.757 213.074 354.887C 205.053 362.908 195.622 369.141 184.782 373.585C 174.051 378.03 162.506 380.252 150.149 380.252C 137.9 380.252 126.355 377.976 115.516 373.423C 104.784 368.87 95.3535 362.529 87.2236 354.399C 79.2021 346.269 72.8608 336.622 68.1997 325.457C 63.5386 314.183 61.208 301.826 61.208 288.384L 61.208 133.591L 105.76 133.591L 105.76 214.89C 108.145 211.855 111.017 209.145 114.377 206.76C 117.846 204.375 121.532 202.424 125.434 200.907C 129.445 199.389 133.564 198.251 137.792 197.492C 142.019 196.625 146.138 196.191 150.149 196.191C 162.506 196.191 174.051 198.522 184.782 203.183C 195.622 207.736 205.053 214.131 213.074 222.37C 221.096 230.608 227.437 240.364 232.098 251.637C 236.759 262.802 239.09 275.051 239.09 288.384ZM 194.375 288.384C 194.375 281.664 193.183 275.431 190.798 269.686C 188.522 263.832 185.378 258.792 181.368 254.564C 177.357 250.336 172.642 247.03 167.222 244.646C 161.91 242.261 156.219 241.068 150.149 241.068C 144.079 241.068 138.333 242.423 132.914 245.133C 127.602 247.735 122.941 251.258 118.93 255.702C 114.919 260.038 111.776 265.079 109.5 270.824C 107.223 276.46 106.085 282.314 106.085 288.384C 106.085 295.105 107.223 301.338 109.5 307.083C 111.776 312.828 114.919 317.814 118.93 322.042C 122.941 326.27 127.602 329.63 132.914 332.123C 138.333 334.508 144.079 335.7 150.149 335.7C 156.219 335.7 161.91 334.508 167.222 332.123C 172.642 329.63 177.357 326.27 181.368 322.042C 185.378 317.814 188.522 312.828 190.798 307.083C 193.183 301.338 194.375 295.105 194.375 288.384Z"/>
</defs>
</svg>
