<?xml version="1.0" standalone="no"?>
<!DOCTYPE svg PUBLIC "-//W3C//DTD SVG 20010904//EN"
 "http://www.w3.org/TR/2001/REC-SVG-20010904/DTD/svg10.dtd">
<svg version="1.0" xmlns="http://www.w3.org/2000/svg"
 width="720.000000pt" height="720.000000pt" viewBox="0 0 720.000000 720.000000"
 preserveAspectRatio="xMidYMid meet">
<metadata>
Created by potrace 1.11, written by Peter Selinger 2001-2013
</metadata>
<g transform="translate(0.000000,720.000000) scale(0.100000,-0.100000)"
fill="#000000" stroke="none">
<path d="M3369 7196 c-2 -2 -38 -6 -79 -9 -185 -14 -431 -58 -630 -112 -715
-196 -1312 -576 -1810 -1151 -157 -181 -349 -473 -469 -711 -150 -300 -281
-696 -327 -988 -3 -22 -8 -47 -9 -55 -2 -8 -6 -40 -10 -70 -4 -30 -9 -66 -11
-80 -12 -77 -19 -220 -19 -415 0 -264 9 -381 41 -580 21 -124 22 -129 44 -225
11 -47 23 -98 26 -114 12 -60 124 -385 171 -497 366 -861 1073 -1559 1943
-1918 102 -42 303 -114 356 -126 10 -3 62 -16 114 -30 52 -14 104 -27 115 -29
55 -12 243 -46 279 -51 23 -3 59 -7 81 -10 150 -20 552 -27 725 -13 570 47
1140 238 1620 544 156 99 182 118 333 238 184 147 374 333 507 496 25 30 50
60 57 68 33 35 173 236 243 347 71 114 198 355 242 460 9 22 27 63 38 90 93
217 199 615 225 850 4 33 9 62 10 65 10 17 20 238 19 435 0 205 -6 340 -18
415 -3 14 -7 48 -11 75 -3 28 -10 77 -16 110 -6 33 -12 71 -14 85 -6 35 -24
109 -52 220 -123 482 -358 947 -677 1343 -438 545 -1005 940 -1669 1163 -70
23 -131 43 -135 43 -4 1 -32 8 -62 17 -120 35 -369 83 -515 99 -27 3 -63 8
-80 11 -37 5 -571 14 -576 10z m-1773 -2506 c1 -294 2 -537 3 -539 1 -2 20 16
43 39 47 47 124 99 178 120 19 7 40 17 45 21 6 3 51 17 100 30 75 19 115 23
240 23 84 0 175 -6 207 -13 32 -7 61 -13 65 -13 17 -1 172 -59 223 -83 233
-111 418 -295 539 -534 147 -292 175 -624 83 -961 -69 -249 -251 -501 -465
-644 -131 -87 -312 -159 -457 -181 -25 -4 -54 -9 -65 -11 -35 -7 -228 -7 -290
1 -267 31 -525 160 -717 359 -101 105 -209 289 -262 447 -60 180 -59 151 -61
1359 -2 608 -1 1107 0 1110 2 3 135 5 297 5 l293 0 1 -535z m3625 380 c178
-33 315 -87 464 -185 96 -63 130 -91 208 -170 375 -378 466 -959 226 -1430
-30 -58 -88 -155 -99 -165 -3 -3 -18 -23 -35 -45 -63 -85 -274 -275 -306 -275
-4 0 -1 -17 8 -37 35 -86 181 -430 253 -600 l78 -183 -334 0 c-209 0 -334 4
-334 10 0 5 -11 33 -24 62 -13 29 -69 159 -125 288 -56 129 -105 242 -110 250
-7 13 -56 15 -342 15 -184 0 -340 -2 -346 -4 -10 -2 -13 -74 -13 -312 l0 -309
-310 0 -310 0 0 73 c-1 99 -1 2930 0 2990 l0 47 673 0 c620 -1 680 -3 778 -20z"/>
<path d="M2132 3788 c-74 -8 -121 -22 -177 -52 -226 -120 -358 -344 -350 -596
3 -118 17 -173 66 -276 212 -437 795 -444 1033 -11 14 26 23 47 20 47 -4 0 -2
6 4 13 23 28 45 135 46 227 1 113 -6 165 -34 245 -92 265 -346 433 -608 403z"/>
<path d="M4390 3844 l0 -622 368 3 c316 2 375 5 422 20 323 102 512 430 431
747 -49 190 -167 334 -341 415 -115 54 -136 56 -522 58 l-358 2 0 -623z"/>
</g>
</svg>
